<?xml version="1.0" encoding="UTF-8"?>
<svg width="500px" height="500px" viewBox="0 0 500 500" version="1.1" xmlns="http://www.w3.org/2000/svg" xmlns:xlink="http://www.w3.org/1999/xlink">
    <!-- Generator: Sketch 53.2 (72643) - https://sketchapp.com -->
    <title>Artboard Copy 9</title>
    <desc>Created with Sketch.</desc>
    <g id="Artboard-Copy-9" stroke="none" stroke-width="1" fill="none" fill-rule="evenodd">
        <path d="M122.889096,-67.4042025 L-142.884482,79.1537623 C-154.002361,85.2889019 -163,100.56377 -163,113.261953 L-163,404.708872 C-163,417.420022 -154.002361,432.698594 -142.884482,438.830029 L122.889096,585.40837 C134.005129,591.530543 152.01886,591.530543 163.109059,585.40837 L428.882637,438.830029 C439.99867,432.681923 449,417.420022 449,404.708872 L449,113.261953 C449,100.56377 439.99867,85.2889019 428.882637,79.1537623 L163.109059,-67.4042025 C157.551042,-70.4717723 150.278751,-72 143.006459,-72 C135.734167,-72 128.445267,-70.4643627 122.889096,-67.4042025" id="Fill-1" fill="#2DC5FA"></path>
        <path d="M34.3,285 L34.3,162.5 L54.25,162.5 C81.55,162.5 97.125,182.275 97.125,221.65 L97.125,225.85 C97.125,265.225 81.55,285 54.25,285 L34.3,285 Z M55.65,265.4 L56.525,265.4 C66.675,265.4 75.425,256.475 75.425,225.85 L75.425,221.65 C75.425,191.025 66.675,182.1 56.525,182.1 L55.65,182.1 L55.65,265.4 Z M107.625,285 L107.625,162.5 L154.525,162.5 L154.525,182.8 L128.975,182.8 L128.975,213.25 L151.55,213.25 L151.55,233.55 L128.975,233.55 L128.975,264.7 L155.05,264.7 L155.05,285 L107.625,285 Z M184.45,285.875 C176.05,285.875 168.875,283.775 162.75,280.8 L162.75,258.575 C170.275,262.95 176.225,265.4 182,265.4 C188.125,265.4 193.375,262.425 193.375,254.9 L193.375,254.55 C193.375,248.95 191.625,244.75 181.475,233.2 C166.95,216.75 161,208.875 161,194 L161,193.65 C161,174.05 173.775,161.625 190.75,161.625 C199.325,161.625 204.4,162.85 209.65,165.475 L209.65,187.7 C203,183.85 198.975,182.1 193.375,182.1 C187.425,182.1 182.35,185.95 182.35,192.6 L182.35,192.95 C182.35,198.725 184.1,200.825 194.25,212.55 C211.05,231.975 214.725,239.5 214.725,253.5 L214.725,253.85 C214.725,273.1 201.25,285.875 184.45,285.875 Z M222.6,285 L222.6,162.5 L243.95,162.5 L243.95,285 L222.6,285 Z M293.825,285.875 C272.475,285.875 254.8,268.55 254.8,225.85 L254.8,221.65 C254.8,182.1 271.6,161.625 295.75,161.625 C302.225,161.625 307.65,163.025 312.025,165.125 L312.025,187.35 C306.775,184.2 302.05,182.1 296.45,182.1 C284.2,182.1 276.5,194.35 276.5,220.775 L276.5,226.725 C276.5,258.75 285.95,266.1 294.7,266.1 C295.4,266.1 295.575,266.1 296.625,265.925 L296.625,234.6 L286.125,234.6 L286.125,215.525 L316.05,215.525 L316.05,280.625 C308.35,283.95 302.05,285.875 293.825,285.875 Z M327.775,285 L327.775,162.5 L347.725,162.5 L369.25,224.45 L369.25,162.5 L390.075,162.5 L390.075,285 L371.175,285 L348.6,220.075 L348.6,285 L327.775,285 Z" id="DESIGN" fill="#FFFFFF" fill-rule="nonzero"></path>
        <path d="M34.3,138 L34.3,103 L44.05,103 L44.05,138 L34.3,138 Z M53.45,138 L53.45,103 L62.5,103 L76.9,121.5 L76.9,103 L86.5,103 L86.5,138 L78,138 L63.05,118.8 L63.05,138 L53.45,138 Z M104.25,138 L104.25,111.5 L93.75,111.5 L93.75,103 L124.45,103 L124.45,111.5 L113.95,111.5 L113.95,138 L104.25,138 Z M131.7,138 L131.7,103 L148.25,103 C153.6,103 157.3,104.4 159.65,106.8 C161.7,108.8 162.75,111.5 162.75,114.95 L162.75,115.05 C162.75,120.4 159.9,123.95 155.55,125.8 L163.9,138 L152.7,138 L145.65,127.4 L141.4,127.4 L141.4,138 L131.7,138 Z M141.4,119.8 L147.8,119.8 C151.1,119.8 153,118.2 153,115.65 L153,115.55 C153,112.8 151,111.4 147.75,111.4 L141.4,111.4 L141.4,119.8 Z M188.25,138.7 C177.45,138.7 169.45,130.65 169.45,120.6 L169.45,120.5 C169.45,110.45 177.55,102.3 188.35,102.3 C199.15,102.3 207.15,110.35 207.15,120.4 L207.15,120.5 C207.15,130.55 199.05,138.7 188.25,138.7 Z M188.35,129.95 C193.7,129.95 197.25,125.65 197.25,120.6 L197.25,120.5 C197.25,115.45 193.6,111.05 188.25,111.05 C182.95,111.05 179.4,115.35 179.4,120.4 L179.4,120.5 C179.4,125.55 183.05,129.95 188.35,129.95 Z" id="INTROTO" fill="#FFFFFF" fill-rule="nonzero"></path>
        <path d="M44.13,399 L44.13,323.08 L32.95,323.08 L32.95,308 L71.17,308 L71.17,323.08 L59.99,323.08 L59.99,399 L44.13,399 Z M77.8,399 L77.8,308 L93.66,308 L93.66,345.7 L107.44,345.7 L107.44,308 L123.3,308 L123.3,399 L107.44,399 L107.44,360.78 L93.66,360.78 L93.66,399 L77.8,399 Z M132.92,399 L132.92,308 L148.78,308 L148.78,399 L132.92,399 Z M158.4,399 L158.4,308 L173.22,308 L189.21,354.02 L189.21,308 L204.68,308 L204.68,399 L190.64,399 L173.87,350.77 L173.87,399 L158.4,399 Z M214.04,399 L214.04,308 L229.9,308 L229.9,346.09 L242.77,308 L260.71,308 L245.37,346.48 L260.97,399 L243.29,399 L233.41,364.55 L229.9,374.56 L229.9,399 L214.04,399 Z M266.69,399 L266.69,308 L282.55,308 L282.55,399 L266.69,399 Z M292.17,399 L292.17,308 L306.99,308 L322.98,354.02 L322.98,308 L338.45,308 L338.45,399 L324.41,399 L307.64,350.77 L307.64,399 L292.17,399 Z M375.24,399.65 C359.38,399.65 346.25,386.78 346.25,355.06 L346.25,351.94 C346.25,322.56 358.73,307.35 376.67,307.35 C381.48,307.35 385.51,308.39 388.76,309.95 L388.76,326.46 C384.86,324.12 381.35,322.56 377.19,322.56 C368.09,322.56 362.37,331.66 362.37,351.29 L362.37,355.71 C362.37,379.5 369.39,384.96 375.89,384.96 C376.41,384.96 376.54,384.96 377.32,384.83 L377.32,361.56 L369.52,361.56 L369.52,347.39 L391.75,347.39 L391.75,395.75 C386.03,398.22 381.35,399.65 375.24,399.65 Z" id="THINKING" fill="#FFFFFF" fill-rule="nonzero"></path>
    </g>
</svg>